<?xml version="1.0" standalone="no"?>
<!DOCTYPE svg PUBLIC "-//W3C//DTD SVG 20010904//EN"
 "http://www.w3.org/TR/2001/REC-SVG-20010904/DTD/svg10.dtd">
<svg version="1.0" xmlns="http://www.w3.org/2000/svg"
 width="379.000000pt" height="379.000000pt" viewBox="0 0 379.000000 379.000000"
 preserveAspectRatio="xMidYMid meet">
<metadata>
Created by potrace 1.14, written by Peter Selinger 2001-2017
</metadata>
<g transform="translate(0.000000,379.000000) scale(0.100000,-0.100000)"
fill="#000000" stroke="none">
<path d="M1690 3765 c-98 -22 -217 -84 -287 -149 l-61 -56 -7 37 c-19 108
-104 173 -224 173 -68 0 -136 -23 -174 -58 -39 -35 -70 -114 -70 -177 0 -99
48 -161 166 -215 l68 -31 -4 -154 -4 -155 -61 -56 -62 -56 0 -361 0 -361 63
62 64 63 6 -83 c4 -46 7 -144 7 -218 l0 -135 61 68 61 67 74 0 74 0 0 -130 c0
-72 4 -130 9 -130 5 0 34 27 64 60 51 57 54 64 60 128 9 84 9 332 1 332 -3 0
-65 -56 -137 -125 l-132 -125 -5 222 -5 222 -60 -67 c-33 -37 -63 -67 -67 -67
-5 0 -8 156 -8 347 l0 347 65 -64 c35 -35 66 -62 68 -59 2 2 9 29 16 59 31
128 80 197 170 242 45 23 52 23 456 26 296 2 422 0 453 -9 56 -15 133 -85 162
-145 12 -26 29 -75 37 -110 l16 -63 68 62 69 61 0 153 c0 138 2 154 18 159 59
18 138 64 167 95 58 64 70 202 25 276 -75 125 -299 140 -385 27 -23 -31 -39
-61 -59 -118 -6 -18 -8 -18 -34 6 -67 64 -203 134 -327 169 -94 27 -304 35
-395 14z"/>
<path d="M509 3136 c-97 -26 -152 -94 -169 -211 -6 -42 -10 -391 -10 -879 l0
-808 47 7 c141 21 363 110 438 176 53 46 107 133 129 207 l19 62 -44 47 c-191
204 -238 408 -223 956 l7 248 83 71 84 71 -29 18 c-76 46 -230 63 -332 35z"/>
<path d="M3059 3140 c-26 -4 -69 -18 -95 -30 l-49 -21 40 -37 c22 -21 58 -52
80 -70 l40 -32 3 -303 c5 -418 -11 -542 -93 -712 -31 -64 -63 -112 -109 -161
l-65 -71 14 -53 c34 -131 110 -228 225 -292 81 -45 216 -93 315 -111 l75 -15
0 848 c0 918 1 903 -55 976 -56 74 -187 107 -326 84z"/>
<path d="M2690 2637 c0 -191 -3 -347 -7 -347 -4 0 -35 30 -69 68 l-63 67 -1
-226 0 -227 65 -68 64 -69 1 225 0 224 58 -57 c32 -31 61 -57 65 -57 4 0 7
157 7 348 l0 348 -60 59 -60 59 0 -347z"/>
<path d="M1401 2913 c0 -5 38 -42 84 -83 l83 -75 1 -104 1 -103 -107 100 c-60
55 -121 114 -138 132 -16 17 -42 41 -57 52 l-28 19 0 -210 0 -211 140 0 140 0
0 -97 1 -98 87 92 87 91 95 -89 c52 -48 98 -89 101 -89 4 0 50 41 103 91 l96
91 90 -93 89 -94 1 98 0 97 135 0 135 0 0 210 c0 116 -3 210 -7 210 -5 -1 -78
-68 -163 -150 l-155 -149 -3 102 -3 102 88 82 88 82 -492 1 c-271 0 -493 -3
-492 -7z"/>
<path d="M1647 2292 c-25 -28 -21 -67 9 -91 15 -12 32 -21 39 -21 23 0 65 41
65 64 0 12 -7 32 -16 44 -19 28 -74 30 -97 4z"/>
<path d="M2044 2302 c-41 -27 -35 -93 11 -114 52 -23 110 35 84 85 -15 29 -28
37 -59 37 -14 0 -30 -4 -36 -8z"/>
<path d="M2276 2204 c-3 -9 -6 -94 -6 -190 l0 -174 65 -67 64 -68 1 138 0 137
71 0 71 0 -117 113 c-134 128 -141 133 -149 111z"/>
<path d="M1763 1983 l127 -128 127 128 128 127 -255 0 -255 0 128 -127z"/>
<path d="M1520 1556 l0 -128 -46 7 c-114 17 -256 71 -351 135 l-33 22 0 -454
0 -454 195 -167 c107 -92 197 -167 200 -167 3 0 5 205 5 455 l0 456 83 -3 82
-3 3 -515 2 -515 107 -107 c59 -60 112 -108 118 -108 6 0 59 48 118 108 l107
107 0 518 0 517 85 0 85 0 0 -455 c0 -250 3 -455 6 -455 3 0 48 37 100 81 l94
82 0 373 0 374 100 0 100 0 0 161 0 161 -27 -18 c-127 -83 -216 -119 -325
-131 l-58 -6 0 124 -1 124 -25 -52 c-62 -129 -255 -219 -414 -194 -33 5 -80
19 -105 30 -61 27 -149 112 -180 174 l-25 51 0 -128z"/>
</g>
</svg>
